{"accessors":[{"bufferView":0,"componentType":5126,"count":768,"max":[64.0,2.0,64.0],"min":[0.0,0.0,62.0],"type":"VEC3"},{"bufferView":1,"componentType":5126,"count":768,"type":"VEC2"},{"bufferView":2,"componentType":5126,"count":768,"type":"VEC3"},{"bufferView":3,"componentType":5123,"count":780,"type":"SCALAR"},{"bufferView":4,"componentType":5126,"count":744,"max":[64.0,2.0,2.0],"min":[2.0,0.0,0.0],"type":"VEC3"},{"bufferView":5,"componentType":5126,"count":744,"type":"VEC2"},{"bufferView":6,"componentType":5126,"count":744,"type":"VEC3"},{"bufferView":7,"componentType":5123,"count":750,"type":"SCALAR"},{"bufferView":8,"componentType":5126,"count":1344,"max":[43.141422271728516,15.1414213180542,58.0],"min":[30.858579635620117,0.8585789799690247,2.0],"type":"VEC3"},{"bufferView":9,"componentType":5126,"count":1344,"type":"VEC2"},{"bufferView":10,"componentType":5126,"count":1344,"type":"VEC3"},{"bufferView":11,"componentType":5123,"count":1488,"type":"SCALAR"},{"bufferView":12,"componentType":5126,"count":1000,"max":[42.0,16.0,62.0],"min":[22.0,-1.1920928955078125e-07,58.0],"type":"VEC3"},{"bufferView":13,"componentType":5126,"count":1000,"type":"VEC2"},{"bufferView":14,"componentType":5126,"count":1000,"type":"VEC3"},{"bufferView":15,"componentType":5123,"count":1848,"type":"SCALAR"},{"bufferView":16,"componentType":5126,"count":24,"max":[2.0,2.0,2.0],"min":[0.0,0.0,0.0],"type":"VEC3"},{"bufferView":17,"componentType":5126,"count":24,"type":"VEC2"},{"bufferView":18,"componentType":5126,"count":24,"type":"VEC3"},{"bufferView":19,"componentType":5123,"count":30,"type":"SCALAR"}],"asset":{"generator":"Total Editor 3","version":"2.0"},"bufferViews":[{"buffer":0,"byteLength":9216,"byteOffset":0,"target":34962},{"buffer":0,"byteLength":6144,"byteOffset":9216,"target":34962},{"buffer":0,"byteLength":9216,"byteOffset":15360,"target":34962},{"buffer":0,"byteLength":1560,"byteOffset":24576,"target":34963},{"buffer":0,"byteLength":8928,"byteOffset":26136,"target":34962},{"buffer":0,"byteLength":5952,"byteOffset":35064,"target":34962},{"buffer":0,"byteLength":8928,"byteOffset":41016,"target":34962},{"buffer":0,"byteLength":1500,"byteOffset":49944,"target":34963},{"buffer":0,"byteLength":16128,"byteOffset":51444,"target":34962},{"buffer":0,"byteLength":10752,"byteOffset":67576,"target":34962},{"buffer":0,"byteLength":16128,"byteOffset":78332,"target":34962},{"buffer":0,"byteLength":2976,"byteOffset":94460,"target":34963},{"buffer":0,"byteLength":12000,"byteOffset":97444,"target":34962},{"buffer":0,"byteLength":8000,"byteOffset":109448,"target":34962},{"buffer":0,"byteLength":12000,"byteOffset":117452,"target":34962},{"buffer":0,"byteLength":3696,"byteOffset":129452,"target":34963},{"buffer":0,"byteLength":288,"byteOffset":133156,"target":34962},{"buffer":0,"byteLength":192,"byteOffset":133448,"target":34962},{"buffer":0,"byteLength":288,"byteOffset":133648,"target":34962},{"buffer":0,"byteLength":60,"byteOffset":133936,"target":34963}],"buffers":[{"byteLength":133996,"uri":"data:application/octet-stream;base64,"}],"images":[{"uri":"assets/textures/tiles/start.png"},{"uri":"assets/textures/tiles/finish.png"},{"uri":"assets/textures/tiles/grind_rail.png"},{"uri":"assets/textures/tiles/galvanized_steel.png"},{"uri":"assets/textures/tiles/challenge_32.png"}],"materials":[{"name":"assets/textures/tiles/start.png","pbrMetallicRoughness":{"baseColorTexture":{"index":0,"texCoord":0},"metallicFactor":0.0,"roughnessFactor":1.0}},{"name":"assets/textures/tiles/finish.png","pbrMetallicRoughness":{"baseColorTexture":{"index":1,"texCoord":0},"metallicFactor":0.0,"roughnessFactor":1.0}},{"name":"assets/textures/tiles/grind_rail.png","pbrMetallicRoughness":{"baseColorTexture":{"index":2,"texCoord":0},"metallicFactor":0.0,"roughnessFactor":1.0}},{"name":"assets/textures/tiles/galvanized_steel.png","pbrMetallicRoughness":{"baseColorTexture":{"index":3,"texCoord":0},"metallicFactor":0.0,"roughnessFactor":1.0}},{"name":"assets/textures/tiles/challenge_32.png","pbrMetallicRoughness":{"baseColorTexture":{"index":4,"texCoord":0},"metallicFactor":0.0,"roughnessFactor":1.0}}],"meshes":[{"primitives":[{"attributes":{"NORMAL":2,"POSITION":0,"TEXCOORD_0":1},"indices":3,"material":0,"mode":4},{"attributes":{"NORMAL":6,"POSITION":4,"TEXCOORD_0":5},"indices":7,"material":1,"mode":4},{"attributes":{"NORMAL":10,"POSITION":8,"TEXCOORD_0":9},"indices":11,"material":2,"mode":4},{"attributes":{"NORMAL":14,"POSITION":12,"TEXCOORD_0":13},"indices":15,"material":3,"mode":4},{"attributes":{"NORMAL":18,"POSITION":16,"TEXCOORD_0":17},"indices":19,"material":4,"mode":4}]}],"nodes":[{"mesh":0,"name":"map"}],"samplers":[{"magFilter":9728,"minFilter":9984,"wrapS":10497,"wrapT":10497}],"scene":0,"scenes":[{"nodes":[0]}],"textures":[{"sampler":0,"source":0},{"sampler":0,"source":1},{"sampler":0,"source":2},{"sampler":0,"source":3},{"sampler":0,"source":4}]}