{"accessors":[{"bufferView":0,"componentType":5126,"count":1080,"max":[36.0,14.0,62.0],"min":[28.0,12.0,1.9999998807907104],"type":"VEC3"},{"bufferView":1,"componentType":5126,"count":1080,"type":"VEC2"},{"bufferView":2,"componentType":5126,"count":1080,"type":"VEC3"},{"bufferView":3,"componentType":5123,"count":1092,"type":"SCALAR"},{"bufferView":4,"componentType":5126,"count":768,"max":[64.0,2.0,64.0],"min":[0.0,0.0,62.0],"type":"VEC3"},{"bufferView":5,"componentType":5126,"count":768,"type":"VEC2"},{"bufferView":6,"componentType":5126,"count":768,"type":"VEC3"},{"bufferView":7,"componentType":5123,"count":780,"type":"SCALAR"},{"bufferView":8,"componentType":5126,"count":744,"max":[64.0,2.0,2.0],"min":[2.0,0.0,0.0],"type":"VEC3"},{"bufferView":9,"componentType":5126,"count":744,"type":"VEC2"},{"bufferView":10,"componentType":5126,"count":744,"type":"VEC3"},{"bufferView":11,"componentType":5123,"count":750,"type":"SCALAR"},{"bufferView":12,"componentType":5126,"count":8832,"max":[38.0,12.0,62.0],"min":[26.0,0.0,1.9999998807907104],"type":"VEC3"},{"bufferView":13,"componentType":5126,"count":8832,"type":"VEC2"},{"bufferView":14,"componentType":5126,"count":8832,"type":"VEC3"},{"bufferView":15,"componentType":5123,"count":6072,"type":"SCALAR"},{"bufferView":16,"componentType":5126,"count":24,"max":[2.0,2.0,2.0],"min":[0.0,0.0,0.0],"type":"VEC3"},{"bufferView":17,"componentType":5126,"count":24,"type":"VEC2"},{"bufferView":18,"componentType":5126,"count":24,"type":"VEC3"},{"bufferView":19,"componentType":5123,"count":30,"type":"SCALAR"}],"asset":{"generator":"Total Editor 3","version":"2.0"},"bufferViews":[{"buffer":0,"byteLength":12960,"byteOffset":0,"target":34962},{"buffer":0,"byteLength":8640,"byteOffset":12960,"target":34962},{"buffer":0,"byteLength":12960,"byteOffset":21600,"target":34962},{"buffer":0,"byteLength":2184,"byteOffset":34560,"target":34963},{"buffer":0,"byteLength":9216,"byteOffset":36744,"target":34962},{"buffer":0,"byteLength":6144,"byteOffset":45960,"target":34962},{"buffer":0,"byteLength":9216,"byteOffset":52104,"target":34962},{"buffer":0,"byteLength":1560,"byteOffset":61320,"target":34963},{"buffer":0,"byteLength":8928,"byteOffset":62880,"target":34962},{"buffer":0,"byteLength":5952,"byteOffset":71808,"target":34962},{"buffer":0,"byteLength":8928,"byteOffset":77760,"target":34962},{"buffer":0,"byteLength":1500,"byteOffset":86688,"target":34963},{"buffer":0,"byteLength":105984,"byteOffset":88188,"target":34962},{"buffer":0,"byteLength":70656,"byteOffset":194176,"target":34962},{"buffer":0,"byteLength":105984,"byteOffset":264836,"target":34962},{"buffer":0,"byteLength":12144,"byteOffset":370820,"target":34963},{"buffer":0,"byteLength":288,"byteOffset":382972,"target":34962},{"buffer":0,"byteLength":192,"byteOffset":383264,"target":34962},{"buffer":0,"byteLength":288,"byteOffset":383464,"target":34962},{"buffer":0,"byteLength":60,"byteOffset":383752,"target":34963}],"buffers":[{"byteLength":383812,"uri":"data:application/octet-stream;base64,"}],"images":[{"uri":"assets/textures/tiles/concrete.png"},{"uri":"assets/textures/tiles/start.png"},{"uri":"assets/textures/tiles/finish.png"},{"uri":"assets/textures/tiles/wall_climb.png"},{"uri":"assets/textures/tiles/challenge_32.png"}],"materials":[{"name":"assets/textures/tiles/concrete.png","pbrMetallicRoughness":{"baseColorTexture":{"index":0,"texCoord":0},"metallicFactor":0.0,"roughnessFactor":1.0}},{"name":"assets/textures/tiles/start.png","pbrMetallicRoughness":{"baseColorTexture":{"index":1,"texCoord":0},"metallicFactor":0.0,"roughnessFactor":1.0}},{"name":"assets/textures/tiles/finish.png","pbrMetallicRoughness":{"baseColorTexture":{"index":2,"texCoord":0},"metallicFactor":0.0,"roughnessFactor":1.0}},{"name":"assets/textures/tiles/wall_climb.png","pbrMetallicRoughness":{"baseColorTexture":{"index":3,"texCoord":0},"metallicFactor":0.0,"roughnessFactor":1.0}},{"name":"assets/textures/tiles/challenge_32.png","pbrMetallicRoughness":{"baseColorTexture":{"index":4,"texCoord":0},"metallicFactor":0.0,"roughnessFactor":1.0}}],"meshes":[{"primitives":[{"attributes":{"NORMAL":2,"POSITION":0,"TEXCOORD_0":1},"indices":3,"material":0,"mode":4},{"attributes":{"NORMAL":6,"POSITION":4,"TEXCOORD_0":5},"indices":7,"material":1,"mode":4},{"attributes":{"NORMAL":10,"POSITION":8,"TEXCOORD_0":9},"indices":11,"material":2,"mode":4},{"attributes":{"NORMAL":14,"POSITION":12,"TEXCOORD_0":13},"indices":15,"material":3,"mode":4},{"attributes":{"NORMAL":18,"POSITION":16,"TEXCOORD_0":17},"indices":19,"material":4,"mode":4}]}],"nodes":[{"mesh":0,"name":"map"}],"samplers":[{"magFilter":9728,"minFilter":9984,"wrapS":10497,"wrapT":10497}],"scene":0,"scenes":[{"nodes":[0]}],"textures":[{"sampler":0,"source":0},{"sampler":0,"source":1},{"sampler":0,"source":2},{"sampler":0,"source":3},{"sampler":0,"source":4}]}