# Blender 5.2.1 LTS
# www.blender.org
mtllib bar_horiz_angle.mtl
o bar_horiz_angle
v -0.100000 0.100000 1.000000
v 0.100000 0.100000 1.000000
v 1.000000 0.100000 -0.100000
v 1.000000 0.100000 0.100000
v -0.100000 -0.100000 1.000000
v 0.100000 -0.100000 1.000000
v 1.000000 -0.100000 -0.100000
v 1.000000 -0.100000 0.100000
vn -0.7071 -0.0000 -0.7071
vn 0.7071 -0.0000 0.7071
vn -0.0000 1.0000 -0.0000
vn 1.0000 -0.0000 -0.0000
vn -0.0000 -1.0000 -0.0000
vn -0.0000 -0.0000 1.0000
vt 1.000000 1.000000
vt 0.000000 1.000000
vt 0.000000 0.000000
vt 1.000000 0.000000
s 1
usemtl primary
f 5/1/1 1/2/1 3/3/1
f 4/2/2 6/4/2 8/1/2
f 5/1/1 3/3/1 7/4/1
f 4/2/2 2/3/2 6/4/2
usemtl secondary
f 4/2/3 3/3/3 1/4/3
f 8/2/4 7/3/4 3/4/4
f 8/1/5 5/3/5 7/4/5
f 6/1/6 1/3/6 5/4/6
f 8/1/5 6/2/5 5/3/5
f 6/1/6 2/2/6 1/3/6
f 8/2/4 3/4/4 4/1/4
f 4/2/3 1/4/3 2/1/3
