# Blender 5.2.1 LTS
# www.blender.org
mtllib coin.mtl
o coin
v -0.320000 -0.160000 0.800000
v -0.320000 0.160000 0.800000
v -0.800000 -0.160000 -0.320000
v -0.800000 0.160000 -0.320000
v 0.800000 -0.160000 0.320000
v 0.800000 0.160000 0.320000
v 0.320000 -0.160000 -0.800000
v 0.320000 0.160000 -0.800000
v -0.320000 -0.160000 -0.800000
v -0.320000 0.160000 -0.800000
v 0.320000 -0.160000 0.800000
v 0.320000 0.160000 0.800000
v -0.800000 -0.160000 0.320000
v -0.800000 0.160000 0.320000
v 0.800000 -0.160000 -0.320000
v 0.800000 0.160000 -0.320000
v 0.000000 0.160000 -0.000000
v 0.000000 -0.160000 0.000000
vn -0.0000 -1.0000 -0.0000
vn -0.0000 1.0000 -0.0000
vn -1.0000 -0.0000 -0.0000
vn -0.0000 -0.0000 -1.0000
vn 1.0000 -0.0000 -0.0000
vn -0.0000 -0.0000 1.0000
vn 0.7071 -0.0000 0.7071
vn -0.7071 -0.0000 -0.7071
vn 0.7071 -0.0000 -0.7071
vn -0.7071 -0.0000 0.7071
vt 0.500000 0.500000
vt 1.000000 0.722222
vt 0.722222 1.000000
vt 0.277778 0.000000
vt 0.722222 0.000000
vt 1.000000 0.277778
vt 0.277778 1.000000
vt 0.000000 0.722222
vt 0.000000 0.277778
vt 1.125000 1.000000
vt 0.875000 0.000000
vt 1.125000 0.000000
vt 0.375000 1.000000
vt 0.375000 0.000000
vt 0.625000 0.000000
vt -0.125000 1.000000
vt -0.125000 0.000000
vt 0.125000 0.000000
vt 1.625000 1.000000
vt 1.375000 0.000000
vt 1.625000 0.000000
vt -0.375000 0.000000
vt 0.875000 1.000000
vt 1.375000 1.000000
vt 0.125000 1.000000
vt -0.375000 1.000000
vt 0.625000 1.000000
s 1
usemtl primary
f 18/1/1 5/2/1 11/3/1
f 17/1/2 2/4/2 12/5/2
f 17/1/2 6/6/2 16/2/2
f 18/1/1 1/7/1 13/8/1
f 3/9/1 18/1/1 13/8/1
f 8/3/2 17/1/2 16/2/2
f 4/8/2 17/1/2 10/7/2
f 7/5/1 18/1/1 9/4/1
f 17/1/2 14/9/2 2/4/2
f 17/1/2 12/5/2 6/6/2
f 8/3/2 10/7/2 17/1/2
f 4/8/2 14/9/2 17/1/2
f 18/1/1 15/6/1 5/2/1
f 18/1/1 11/3/1 1/7/1
f 3/9/1 9/4/1 18/1/1
f 7/5/1 15/6/1 18/1/1
usemtl secondary
f 14/10/3 3/11/3 13/12/3
f 8/13/4 7/14/4 9/15/4
f 6/16/5 5/17/5 15/18/5
f 12/19/6 1/20/6 11/21/6
f 6/16/7 11/22/7 5/17/7
f 4/23/8 9/15/8 3/11/8
f 8/13/9 15/18/9 7/14/9
f 2/24/10 13/12/10 1/20/10
f 14/10/3 4/23/3 3/11/3
f 6/16/5 15/18/5 16/25/5
f 12/19/6 2/24/6 1/20/6
f 6/16/7 12/26/7 11/22/7
f 4/23/8 10/27/8 9/15/8
f 8/13/9 16/25/9 15/18/9
f 2/24/10 14/10/10 13/12/10
f 8/13/4 9/15/4 10/27/4
